HIERARCHY
ROOT Hips
{
	OFFSET 0.00000 0.00000 0.00000
	CHANNELS 6 Xposition Yposition Zposition Zrotation Yrotation Xrotation 
	JOINT LHipJoint
	{
		OFFSET 0 0 0
		CHANNELS 3 Zrotation Yrotation Xrotation
		JOINT LeftHip
		{
			OFFSET 1.84395 -1.68683 0.74144
			CHANNELS 3 Zrotation Yrotation Xrotation
			JOINT LeftKnee
			{
				OFFSET 2.27037 -6.23779 0.00000
				CHANNELS 3 Zrotation Yrotation Xrotation
				JOINT LeftAnkle
				{
					OFFSET 2.56918 -7.05877 0.00000
					CHANNELS 3 Zrotation Yrotation Xrotation
					JOINT LeftToe
					{
						OFFSET 0.22276 -0.61202 1.71784
						CHANNELS 3 Zrotation Yrotation Xrotation
						End Site
						{
							OFFSET 0.00000 -0.00000 0.91613
						}
					}
				}
			}
		}
	}
	JOINT RHipJoint
	{
		OFFSET 0 0 0
		CHANNELS 3 Zrotation Yrotation Xrotation
		JOINT RightHip
		{
			OFFSET -1.76833 -1.68684 0.74144
			CHANNELS 3 Zrotation Yrotation Xrotation
			JOINT RightKnee
			{
				OFFSET -2.49360 -6.85110 0.00000
				CHANNELS 3 Zrotation Yrotation Xrotation
				JOINT RightAnkle
				{
					OFFSET -2.55538 -7.02085 0.00000
					CHANNELS 3 Zrotation Yrotation Xrotation
					JOINT RightToe
					{
						OFFSET -0.21516 -0.59115 1.68050
						CHANNELS 3 Zrotation Yrotation Xrotation
						End Site
						{
							OFFSET -0.00000 -0.00000 0.89604
						}
					}
				}
			}
		}
	}
	JOINT lowerback
	{
		OFFSET 0 0 0
		CHANNELS 3 Zrotation Yrotation Xrotation
		JOINT Chest
		{
			OFFSET 0.06382 1.72312 -0.19613
			CHANNELS 3 Zrotation Yrotation Xrotation
			JOINT Chest2
			{
				OFFSET -0.00055 1.73507 0.23859
				CHANNELS 3 Zrotation Yrotation Xrotation
				JOINT lowerneck
				{
					OFFSET 0 0 0
					CHANNELS 3 Zrotation Yrotation Xrotation
					JOINT Neck
					{
						OFFSET 0.03638 1.65562 0.09633
						CHANNELS 3 Zrotation Yrotation Xrotation
						JOINT Head
						{
							OFFSET 0.06388 1.62807 -0.32386
							CHANNELS 3 Zrotation Yrotation Xrotation
							End Site
							{
								OFFSET 0.00995 1.67644 -0.12021
							}
						}
					}
				}
				JOINT LeftCollar
				{
					OFFSET 0 0 0
					CHANNELS 3 Zrotation Yrotation Xrotation
					JOINT LeftShoulder
					{
						OFFSET 3.09648 1.42991 0.28122
CHANNELS 3 Zrotation Xrotation Yrotation
						JOINT LeftElbow
						{
OFFSET 0 -5.118780 -0.000000
CHANNELS 3 Zrotation Xrotation Yrotation
							JOINT LeftWrist
							{
OFFSET 0 -3.599710 0.000000
CHANNELS 3 Zrotation Xrotation Yrotation
								JOINT lhand
								{
									OFFSET 0 0 0
CHANNELS 3 Zrotation Xrotation Yrotation
									JOINT LFingers
									{
OFFSET 0 -0.628770 0.000000
CHANNELS 3 Zrotation Xrotation Yrotation
										End Site
										{
OFFSET 0 -0.506930 0.000000
										}
									}
								}
								JOINT LThumb
								{
OFFSET 0 0.000000 0.000000
CHANNELS 3 Zrotation Xrotation Yrotation
									End Site
									{
OFFSET 0 -0.514670 0.514670
									}
								}
							}
						}
					}
				}
				JOINT RightCollar
				{
					OFFSET 0 0 0
					CHANNELS 3 Zrotation Yrotation Xrotation
					JOINT RightShoulder
					{
						OFFSET -3.33565 1.14597 0.05047
CHANNELS 3 Zrotation Xrotation Yrotation
						JOINT RightElbow
						{
OFFSET 0 -5.490200 0.000000
CHANNELS 3 Zrotation Xrotation Yrotation
							JOINT RightWrist
							{
OFFSET 0 -3.206590 -0.000000
CHANNELS 3 Zrotation Xrotation Yrotation
								JOINT rhand
								{
									OFFSET 0 0 0
CHANNELS 3 Zrotation Xrotation Yrotation
									JOINT RFingers
									{
OFFSET 0 -0.691880 0.000000
CHANNELS 3 Zrotation Xrotation Yrotation
										End Site
										{
OFFSET 0 -0.557810 0.000000
										}
									}
								}
								JOINT RThumb
								{
OFFSET 0 0.000000 0.000000
CHANNELS 3 Zrotation Xrotation Yrotation
									End Site
									{
OFFSET 0 -0.566330 0.566330
									}
								}
							}
						}
					}
				}
			}
		}
	}
}
MOTION
Frames: 11
Frame Time: 0.008333333333333333
0.181000 17.416200 8.568100 -8.736000 -0.692500 10.322800 0.000000 0.000000 0.000000 -16.203100 -38.533800 19.760100 0.043500 -1.345900 -3.701200 -5.281700 40.772200 -37.245300 0.183700 2.760300 7.612000 0.000000 0.000000 0.000000 26.323300 25.307700 5.169100 -0.025700 -1.034900 2.844800 0.718100 -19.407300 -20.636300 -0.013100 -0.739200 2.031600 6.654900 1.858700 -1.801000 0.203000 2.703400 -8.593900 -3.627700 0.886000 -7.750300 -8.989400 -14.673200 3.608700 10.829400 -21.089700 10.952400 3.698900 -10.457800 4.824000 -0.000000 -0.000000 0.000000 0.474000 11.105200 -7.402500 12.183800 -20.079800 2.165000 13.876700 24.043300 11.967300 0.000000 0.000000 0.000000 -7.125000 0.000000 0.000000 -9.280300 17.758800 -6.088200 -0.000000 -0.000000 0.000000 5.078400 10.852000 -10.452400 -14.799100 -23.865500 -3.144200 12.359900 30.143000 29.151800 0.000000 0.000000 0.000000 7.125000 0.000000 -0.000000 44.161600 53.517800 -10.912300
0.182201 17.415746 8.565803 -8.793634 -0.628973 10.310078 0.000000 0.000000 0.000000 -16.076962 -38.432975 19.665454 0.043565 -1.346739 -3.703333 -5.266318 40.682861 -37.069238 0.189348 2.802364 7.728893 0.000000 0.000000 0.000000 26.376824 25.184660 5.112762 -0.026196 -1.044392 2.870906 0.688102 -19.219720 -20.622128 -0.017965 -0.864774 2.376884 6.749317 1.617602 -1.851801 0.654493 2.409708 -8.678563 -3.191066 0.746077 -7.864015 -10.050233 -14.326497 3.236064 10.930621 -20.690297 11.641843 3.844426 -10.268334 5.174941 0.000000 0.000000 0.000000 -0.384126 11.260597 -6.018686 12.182161 -20.077180 2.164443 14.166520 24.149012 12.344397 0.000000 0.000000 0.000000 -7.125000 0.000000 0.000000 -9.073729 17.357302 -6.030081 0.000000 0.000000 0.000000 4.151295 10.933714 -9.612078 -14.723390 -23.759347 -3.113668 12.444157 29.970959 29.309173 0.000000 0.000000 0.000000 7.125000 0.000000 0.000000 44.369894 53.621014 -11.106129
0.173385 17.429800 8.585186 -8.233671 -0.607488 10.889617 0.000000 0.000000 0.000000 -16.453421 -39.075841 19.148243 0.041031 -1.307872 -3.596260 -5.615948 41.299935 -36.905899 0.148134 2.480142 6.834542 0.000000 0.000000 0.000000 25.454380 25.394900 4.547863 -0.023815 -0.996365 2.738896 0.703194 -19.323747 -20.648724 -0.014476 -0.777442 2.136706 6.185060 1.559687 -2.360271 0.711453 2.293951 -8.990993 -2.800652 0.723252 -7.936881 -10.642531 -14.241008 2.556736 11.111480 -20.619012 12.239773 3.904598 -10.210126 5.544073 0.000000 0.000000 0.000000 -0.442585 12.210620 -8.316723 12.669789 -20.801484 2.334735 15.032462 21.159144 12.159152 0.000000 0.000000 0.000000 -7.125000 0.000000 0.000000 -8.474772 17.486312 -5.598615 0.000000 0.000000 0.000000 3.354075 10.961362 -8.505089 -14.406868 -23.313324 -2.987226 12.482076 28.361430 29.900174 0.000000 0.000000 0.000000 7.125000 0.000000 0.000000 44.920655 54.058506 -11.824276
0.170227 17.429904 8.578074 -8.306793 -0.555846 10.856648 0.000000 0.000000 0.000000 -16.189780 -38.871496 18.919876 0.040735 -1.302907 -3.582587 -5.620749 41.184630 -36.513846 0.134057 2.360101 6.501956 0.000000 0.000000 0.000000 25.573421 25.421284 4.546298 -0.024865 -1.018098 2.798670 0.708425 -19.361089 -20.660174 -0.017729 -0.858585 2.359841 5.855257 1.024990 -2.408428 1.514698 1.619323 -9.115309 -1.741445 0.439587 -8.132209 -11.664994 -13.711741 2.393425 10.803943 -19.884348 12.781005 3.996242 -9.892872 5.725779 0.000000 0.000000 0.000000 -1.803146 12.728045 -6.912741 12.934842 -21.191423 2.429893 14.977889 21.359392 11.069249 0.000000 0.000000 0.000000 -7.125000 0.000000 0.000000 -8.525782 18.601683 -5.420333 0.000000 0.000000 0.000000 1.832988 11.224019 -6.505835 -14.327459 -23.200871 -2.955903 12.546929 28.138049 29.772987 0.000000 0.000000 0.000000 7.125000 0.000000 0.000000 44.863892 53.950853 -11.674087
0.168600 17.430092 8.571809 -8.195744 -0.503684 10.808853 0.000000 0.000000 0.000000 -16.402585 -38.998912 19.043991 0.040684 -1.301957 -3.579979 -5.616153 41.207041 -36.612731 0.140714 2.417540 6.661131 0.000000 0.000000 0.000000 25.461511 25.402293 4.593591 -0.024500 -1.011031 2.779132 0.703740 -19.387778 -20.768867 -0.017791 -0.860795 2.365932 5.558950 0.661190 -2.488102 1.993790 1.151654 -9.213334 -1.050229 0.245865 -8.243033 -12.694716 -13.230371 2.742405 11.208393 -19.303711 12.756362 4.343634 -9.651677 5.733981 0.000000 0.000000 0.000000 -2.607687 13.145477 -6.209459 13.163584 -21.526442 2.512997 14.517452 21.833201 9.841273 0.000000 0.000000 0.000000 -7.125000 0.000000 0.000000 -8.875632 19.880244 -5.392531 0.000000 0.000000 0.000000 0.886859 11.470007 -5.395340 -14.284532 -23.139964 -2.938985 12.778825 28.032786 29.364916 0.000000 0.000000 0.000000 7.125000 0.000000 0.000000 44.705915 53.600361 -11.195730
0.171188 17.429912 8.560566 -8.192877 -0.462176 10.755870 0.000000 0.000000 0.000000 -16.424882 -39.014975 19.079442 0.041112 -1.308265 -3.597505 -5.597038 41.173445 -36.621825 0.142083 2.429292 6.693624 0.000000 0.000000 0.000000 25.433809 25.280093 4.522884 -0.025673 -1.034774 2.844443 0.678566 -19.259216 -20.813903 -0.019762 -0.903475 2.483327 5.620225 0.630366 -2.481114 2.019822 1.115166 -9.237601 -1.054927 0.223236 -8.276811 -12.682150 -13.212820 2.657909 11.218405 -19.288014 12.889760 4.337356 -9.638311 5.787375 0.000000 0.000000 0.000000 -2.498490 13.126940 -5.964640 13.097241 -21.429513 2.488718 14.473936 22.234676 9.576693 0.000000 0.000000 0.000000 -7.125000 0.000000 0.000000 -8.913417 20.152091 -5.361456 0.000000 0.000000 0.000000 0.838759 11.509826 -5.498071 -14.249045 -23.089610 -2.925053 13.109439 28.117204 29.168047 0.000000 0.000000 0.000000 7.125000 0.000000 0.000000 44.818729 53.390461 -10.979555
0.172476 17.429491 8.557378 -8.075081 -0.480644 10.581100 0.000000 0.000000 0.000000 -16.740219 -38.915483 19.314410 0.041493 -1.314275 -3.613924 -5.571353 41.134434 -36.652700 0.145966 2.462196 6.784757 0.000000 0.000000 0.000000 25.362750 25.170042 4.702294 -0.025424 -1.029618 2.830374 0.662919 -19.193658 -20.871255 -0.027368 -1.067929 2.935679 5.542596 0.614072 -2.407645 2.018552 1.097050 -9.237158 -1.013085 0.218963 -8.320352 -12.798183 -13.167842 2.619412 11.336853 -19.252043 12.995083 4.387381 -9.618199 5.845154 0.000000 0.000000 0.000000 -2.488655 13.287275 -5.669922 13.093232 -21.423681 2.487261 14.358487 22.521161 9.155262 0.000000 0.000000 0.000000 -7.125000 0.000000 0.000000 -9.008184 20.586842 -5.330601 0.000000 0.000000 0.000000 0.710704 11.649611 -5.331778 -14.205649 -23.027891 -2.908081 13.129905 28.069202 28.771722 0.000000 0.000000 0.000000 7.125000 0.000000 0.000000 44.497064 53.087709 -10.505739
0.174784 17.429458 8.548742 -8.047081 -0.478071 10.498334 0.000000 0.000000 0.000000 -16.775789 -38.794416 19.276042 0.040339 -1.296804 -3.565814 -5.506950 40.982355 -36.562776 0.153831 2.526745 6.963740 0.000000 0.000000 0.000000 25.316057 25.013327 4.699935 -0.025319 -1.026568 2.822007 0.658945 -19.107811 -20.750741 -0.020142 -0.915523 2.516448 5.564696 0.629193 -2.397427 1.988176 1.115780 -9.216454 -1.058521 0.226032 -8.301509 -12.922700 -13.167018 2.547082 11.605232 -19.292402 13.061887 4.473963 -9.627872 5.921841 0.000000 0.000000 0.000000 -2.446248 13.169907 -5.349733 12.973588 -21.248576 2.443694 14.508444 22.939196 9.244786 0.000000 0.000000 0.000000 -7.125000 0.000000 0.000000 -8.898220 20.488234 -5.284061 0.000000 0.000000 0.000000 0.756335 11.753629 -5.345604 -14.220784 -23.049526 -2.913961 13.486378 28.243695 28.509017 0.000000 0.000000 0.000000 7.125000 0.000000 0.000000 44.578537 52.824024 -10.210885
0.173947 17.428247 8.541380 -8.125121 -0.409646 10.518290 0.000000 0.000000 0.000000 -16.537882 -38.727923 19.088027 0.040516 -1.299641 -3.573600 -5.486365 40.886593 -36.387867 0.147557 2.475495 6.821678 0.000000 0.000000 0.000000 25.394913 25.012004 4.637060 -0.025584 -1.032388 2.837827 0.670302 -19.162709 -20.722999 -0.017890 -0.864275 2.375578 5.627049 0.663094 -2.509845 1.988011 1.156035 -9.251032 -1.093734 0.241692 -8.271743 -12.781203 -13.165688 2.657988 11.765829 -19.312198 12.913588 4.513740 -9.630726 5.860937 0.000000 0.000000 0.000000 -2.368692 13.355967 -5.796065 13.013703 -21.307214 2.458217 14.442724 22.662638 9.365102 0.000000 0.000000 0.000000 -7.125000 0.000000 0.000000 -8.941560 20.369117 -5.334720 0.000000 0.000000 0.000000 0.694898 11.909261 -5.202188 -14.158227 -22.960494 -2.889581 13.563930 27.942929 28.475615 0.000000 0.000000 0.000000 7.125000 0.000000 0.000000 44.616303 52.784769 -10.174746
0.170504 17.428678 8.529830 -8.036777 -0.440479 10.478624 0.000000 0.000000 0.000000 -16.544030 -38.656688 18.962012 0.039207 -1.278281 -3.514824 -5.463725 40.787150 -36.214052 0.151617 2.509078 6.914922 0.000000 0.000000 0.000000 25.308702 25.084102 4.635599 -0.026185 -1.045440 2.873812 0.678989 -19.225360 -20.743085 -0.017505 -0.853213 2.345029 5.356201 0.727989 -2.524598 2.022719 1.235285 -9.188249 -0.910788 0.305578 -8.189910 -12.622449 -13.287048 2.303081 11.595830 -19.436567 13.076275 4.395706 -9.673770 5.954743 0.000000 0.000000 0.000000 -2.528831 13.321597 -6.145980 13.027762 -21.327919 2.463402 14.348782 22.537879 9.303237 0.000000 0.000000 0.000000 -7.125000 0.000000 0.000000 -9.010437 20.436729 -5.362909 0.000000 0.000000 0.000000 0.597827 11.962258 -5.264276 -14.136730 -22.929910 -2.881169 13.713909 27.991684 28.581354 0.000000 0.000000 0.000000 7.125000 0.000000 0.000000 44.832580 52.837201 -10.307517
0.170787 17.426894 8.521668 -8.158462 -0.487697 10.424773 0.000000 0.000000 0.000000 -16.423018 -38.580005 18.960352 0.038485 -1.266181 -3.481619 -5.483734 40.826447 -36.214911 0.133295 2.352997 6.482155 0.000000 0.000000 0.000000 25.444099 24.949428 4.623707 -0.025891 -1.039302 2.857064 0.671434 -19.097860 -20.582578 -0.014094 -0.767189 2.108398 5.364866 0.889136 -2.493537 2.025991 1.453109 -9.145129 -0.922220 0.414888 -8.148255 -12.535872 -13.381230 2.137346 11.763474 -19.594878 13.227943 4.400875 -9.729256 6.058439 0.000000 0.000000 0.000000 -2.559502 13.428582 -6.955720 13.077748 -21.400997 2.481620 14.388169 22.290749 9.227575 0.000000 0.000000 0.000000 -7.125000 0.000000 0.000000 -8.984659 20.511775 -5.331811 0.000000 0.000000 0.000000 0.658237 12.186951 -5.474221 -14.141673 -22.936945 -2.883093 13.715407 28.107513 28.691791 0.000000 0.000000 0.000000 7.125000 0.000000 0.000000 44.927354 52.920292 -10.439870
